<svg id="圖層_1" data-name="圖層 1" xmlns="http://www.w3.org/2000/svg" viewBox="0 0 143.34 139.28"><defs><style>.cls-1{fill:#077c5e;}.cls-1,.cls-2,.cls-3,.cls-4{stroke:#496ab2;stroke-width:0.28px;}.cls-2{fill:#fff;}.cls-3{fill:#ea7f26;}.cls-4{fill:#dd242e;}</style></defs><title>7-11_logo</title><path class="cls-1" d="M344.39,350.36v139H201.33v-139Z" transform="translate(-201.19 -350.22)"/><path class="cls-2" d="M319.24,474.39c0,3.13-1.92,5.63-4.25,5.79H289.43v5.58h-34.1v-5.59H229.17c-2.43,0-4.47-2.56-4.47-5.79h0l-10.89-110.1a5.67,5.67,0,0,1,5.54-5.78H324.48a5.67,5.67,0,0,1,5.52,5.78l-10.76,110.1h0Z" transform="translate(-201.19 -350.22)"/><path class="cls-3" d="M302.47,374.62c-3.66,1.55-10.24,5.57-16.63,10.36a102,102,0,0,0-9.58,8.06,36.33,36.33,0,0,0-6.44,7.78H233l-.06-26.2Z" transform="translate(-201.19 -350.22)"/><path class="cls-4" d="M288.76,450.5c-1,9.54-1,21.11-1,33.26H257.5A332.71,332.71,0,0,1,259,450.5Z" transform="translate(-201.19 -350.22)"/><path class="cls-1" d="M241.58,428.51v4.14H236.7v4h4.88v3.44H236.7v4h4.88v4H230.71V428.51Z" transform="translate(-201.19 -350.22)"/><path class="cls-1" d="M267.51,428.51v4.14h-4.85v4h4.85v3.44h-4.85v4h4.85v4H256.66V428.51Z" transform="translate(-201.19 -350.22)"/><path class="cls-1" d="M296.09,428.51v4.14h-4.88v4h4.88v3.44h-4.88v4h4.88v4H285.22V428.51Z" transform="translate(-201.19 -350.22)"/><path class="cls-1" d="M249.94,428.51v15.57h4.88v4H244V428.51Z" transform="translate(-201.19 -350.22)"/><path class="cls-1" d="M274.16,428.51l2.36,13.29h.27l2.42-13.29h4.37l-3.72,19.55H272L269,428.51Z" transform="translate(-201.19 -350.22)"/><path class="cls-1" d="M304.76,428.51v19.55H299V428.51Z" transform="translate(-201.19 -350.22)"/><path class="cls-1" d="M305.08,429.61a7.9,7.9,0,0,1,6.18-1.52,3.4,3.4,0,0,1,2.95,3.3v16.67h-5.76V433.91a1.11,1.11,0,0,0-.55-.89,2.37,2.37,0,0,0-1.17-.36,2.07,2.07,0,0,0-1.24.34,1.61,1.61,0,0,0-.44.46Z" transform="translate(-201.19 -350.22)"/><path class="cls-4" d="M312.67,402.25c-5,1.66-10.12,5.57-14,10s-6.65,9.37-7,13.19l-28.22-.07c3.94-21.12,21.79-39.72,49.28-52.07Z" transform="translate(-201.19 -350.22)"/></svg>