<?xml version="1.0" encoding="utf-8"?>
<!-- Generator: Adobe Illustrator 24.0.0, SVG Export Plug-In . SVG Version: 6.00 Build 0)  -->
<svg version="1.1" id="Layer_1" xmlns="http://www.w3.org/2000/svg" xmlns:xlink="http://www.w3.org/1999/xlink" x="0px" y="0px"
	 viewBox="0 0 326.1 325.9" style="enable-background:new 0 0 326.1 325.9;" xml:space="preserve">
<style type="text/css">
	.st0{fill:#020100;}
	.st1{fill:#030200;}
</style>
<path class="st0" d="M203.4,119.8c-0.5,2.4-1.1,4.9-1.8,7.8c-1.2,5.1-2.1,9.6-3.3,14.7l3.8-2.5c0.1-0.1,0.2-0.1,0.3-0.1
	c0.7-0.4,1.2-0.7,2-1c8.8-4.1,17.5-3.8,26.1-0.4c0,0,0.2-0.2,0.3,0.1c0.6,0.5,1.3,1,2,1.3c0,0,0.1-0.2,0.1,0.1
	c1.3,1.5,2.5,2.8,3.7,4c3.9,6.8,4.2,14.2,3.4,21.6c-0.9,9-2.6,17.9-4,26.8c-0.5,3-1,6-1.7,9.6c-1.2,5-2.3,9.4-3.5,14.1
	c-1.4,3.8-2.7,7.4-4,11c0,0.1-0.1,0.2-0.2,0.3c-0.5,0.9-0.9,1.6-1.3,2.3c-0.2,0.2-0.3,0.4-0.5,0.6l-1,1.8c0,0,0,0.1-0.2,0.2
	c-0.7,0.9-1.1,1.6-1.6,2.3c0,0,0.1,0-0.1,0.1c-0.3,0.3-0.6,0.7-0.9,1.1c0,0,0,0.3-0.2,0.2c-0.5,0.4-0.9,0.8-1.2,1.3
	c0,0,0.3,0.2-0.1,0.1c-1.3,1-2.5,2.1-3.6,3.2c-0.1,0.1-0.2,0.1-0.3,0.2c-0.4,0.3-0.7,0.6-1,1c0,0,0.1,0-0.2,0.1
	c-4.5,2.4-8.7,4.8-12.9,7.2c-0.5,0.1-1,0.1-1.4,0.3c-9.8,3.5-20.5,3.5-30.4,0.1c-9.4-3.4-14.6-10.9-17.1-19.8
	c-2.2-7.9-1.2-16.3,0.5-24.4c2.4-11.5,4.7-23,7.2-34.4c2-9.3,4.3-18.5,6.7-28.2c3.8-13.7,7.5-26.8,11.1-40
	c4.2-9.8,9.6-18.7,18.9-24.5c2.3-1.3,4.7-2.5,7.2-3.6c0.9-0.5,1.4-0.8,1.8-1.1c0,0,0,0,0.3,0c10.5-2.3,21.3-1.8,31.6,1.3
	c4.3,1.7,7.9,4.9,10.1,9c0.9,2.8,1.7,5.6,2.2,8.4c1.3,8.9,0,17.6-2,26.3c-0.2,0.2-0.4,0.3-0.6,0.4c-9.3,0.2-18.2,0.2-27.1,0.2
	c-0.1-0.4-0.1-0.9-0.1-1.3c0.3-2.7,0.5-5,0.8-7.2c0,0-0.1,0,0.2-0.1c0.9-4.4,1.7-8.6,2.3-12.8c0.5-4.1-0.7-5.8-5-7.2
	c-0.9-0.1-1.9-0.1-2.8,0c-1,0.5-1.9,1.2-2.8,1.8c0,0,0.1,0-0.1,0.1c-0.8,1-1.6,2.1-2.3,3.3c0,0,0,0.1-0.2,0.2
	C208.1,103.8,205.8,111.8,203.4,119.8 M206.8,186.8c1.5-8.1,3-16.1,4.6-24.8c-0.9-2.3-1.2-5.7-2.9-6.5c-3.2-1.8-7.2-1.5-10.1,0.6
	c-1.7,2.6-3.8,5-4.9,7.8c-1.5,4-2.1,8.3-3.3,13c0,0.7-0.2,1.4-0.4,2c-1.8,7.9-3.5,15.8-5.5,24.2c-0.4,1.8-0.8,3.6-1.1,5.5
	c-1.1,6.5-2.1,12.9-3.1,19.4c-0.5,3.6,4.5,6.1,7.2,5.5c5.7-1.5,9.7-4.9,11-10.9s2.9-12.3,4.7-18.9c0.9-4.2,1.9-8.4,3.1-12.9
	c0-0.3,0.1-0.6,0.2-0.9C206.3,188.7,206.5,187.7,206.8,186.8L206.8,186.8z"/>
<path class="st1" d="M120.8,228.5c-2.5,7.3-5.1,14.6-8.1,22.1c-11,0.2-21.6,0.2-32.1,0.2c1.8-5.6,3.5-11.2,5.4-16.7
	c3.2-9.4,6.6-18.7,9.9-28.1c0.4-1,0.9-1.9,1.6-3.3c0.9-2.5,1.6-4.5,2.3-6.5c0,0,0-0.1,0.1-0.3c1-2.7,1.9-5.2,2.8-7.7
	c0,0,0-0.1,0.1-0.3c2-5.5,3.9-10.7,5.8-16c7.8-21.4,15.6-42.7,23.6-64.5c0.7-2,1.2-3.6,1.9-5.5H88.4c0.3-2.8,0.6-5.2,0.9-7.7
	c0.1-0.2,0.2-0.4,0.3-0.6c1.7-6.5,3.2-12.8,4.7-19c0.2-0.1,0.3-0.3,0.6-0.3c25.9-0.1,51.5-0.1,77-0.1c-4.2,14.9-8.4,29.9-12.6,44.8
	c-1.2,4.2-2.6,8.3-4.1,12.9c-2.4,7.1-4.7,13.8-7,20.5c-1.5,4.1-3,8.2-4.7,12.8c-2.9,8.1-5.6,15.8-8.4,23.5c-1,2.7-2,5.3-3.3,8.4
	C128,207.9,124.4,218.2,120.8,228.5z"/>
</svg>
