<svg id="圖層_1" data-name="圖層 1" xmlns="http://www.w3.org/2000/svg" viewBox="0 0 139.56 139.28"><defs><style>.cls-1{fill:#fff;}.cls-2{fill:#17a34e;}.cls-3{fill:#268bc3;}</style></defs><title>FamilyMart_logo</title><path class="cls-1" d="M264.33,364.77H403.88V504.05H338.51c1.47-3.7,2.84-7.82,4.08-11.2.74-2,1.47-4.06,2.17-6.1,0-.12,0-.18-.13-.18h-3.42a.2.2,0,0,0-.21.14l-2.92,8s0,0,0,0l0,0h0l0,0-3.25-8a.25.25,0,0,0-.08-.1.24.24,0,0,0-.12,0H331a.1.1,0,0,0-.07,0,.1.1,0,0,0-.06.05l0,.07a.19.19,0,0,0,0,.08l5.33,13a.48.48,0,0,1,0,.37c-.21.55-1.5,3.56-1.35,3.91H264.33Zm137.31,1.5a.11.11,0,0,0,0-.07l-.07,0H266.66l-.07,0a.19.19,0,0,0,0,.07V410.8a.11.11,0,0,0,0,.06.09.09,0,0,0,.07,0H401.54a.09.09,0,0,0,.07,0,.07.07,0,0,0,0-.06Zm0,55s0,0,0,0l-.05,0H266.64l-.05,0s0,0,0,0v44.51l0,0,.05,0H401.56l.05,0,0,0Zm-78.74,61a2.39,2.39,0,1,0-4.77,0,2.39,2.39,0,0,0,4.77,0ZM270.94,488a.15.15,0,0,1-.11,0,.16.16,0,0,1-.05-.11v-3.63a.16.16,0,0,1,.05-.11.21.21,0,0,1,.11,0h8.54a.15.15,0,0,0,.1,0,.16.16,0,0,0,.05-.11v-3.84a.16.16,0,0,0-.05-.11.12.12,0,0,0-.1,0H266.72a.12.12,0,0,0-.1,0,.16.16,0,0,0-.05.11v21a.14.14,0,0,0,.05.11.12.12,0,0,0,.1.05h3.91a.14.14,0,0,0,.15-.15v-8.68a.17.17,0,0,1,.16-.16l8.45,0a.18.18,0,0,0,.15-.15l0-3.89a.12.12,0,0,0,0-.1.16.16,0,0,0-.11,0Zm58-8a.09.09,0,0,0,0-.06l-.05,0h-3.7l0,0V501.2l0,0,0,0h3.67s0,0,.05,0a.05.05,0,0,0,0-.05Zm21.76,6.11,5.58,6.57a.1.1,0,0,0,.17,0l5.4-6.41c.07-.08.12-.07.14,0a8.9,8.9,0,0,1,.09,1.26q0,6.74,0,13.47c0,.1,0,.15.14.15l3.42,0a.13.13,0,0,0,.15-.15v-21c0-.12-.05-.18-.17-.18H362a.3.3,0,0,0-.24.11l-5.3,6.33c-.05.07-.11.07-.17,0l-5.43-6.34a.34.34,0,0,0-.27-.12L347,480c-.09,0-.14.05-.14.15V501.1a.14.14,0,0,0,.14.14h3.37a.13.13,0,0,0,.14-.14V486.21l0,0,0,0h.05ZM394.9,490c0,2.15,0,4.31,0,6.46,0,3.65,3.31,5.63,6.62,4.45a.23.23,0,0,0,.17-.24v-2.95q0-.18-.18-.15c-1.54.26-3,0-3-1.9s0-3.76,0-5.63a.2.2,0,0,1,.06-.14.19.19,0,0,1,.13-.05h2.88a.12.12,0,0,0,.14-.14l0-3c0-.1-.05-.15-.16-.15h-2.93c-.11,0-.17-.06-.17-.18v-5.16c0-.12-.06-.15-.17-.11l-3.21,1.26a.35.35,0,0,0-.15.12.37.37,0,0,0-.05.18v3.75a.13.13,0,0,1-.14.14h-1.91a.13.13,0,0,0-.15.15v3a.14.14,0,0,0,.16.16h1.9A.13.13,0,0,1,394.9,490Zm-113,.45c1.66-.91,4.56-1.63,6.17-.25a1.57,1.57,0,0,1,.58,1.51.32.32,0,0,1,0,.09.23.23,0,0,1-.07.07l-.09,0h-.1c-3.54-.68-6.8-.29-7.8,3.67a4.4,4.4,0,0,0,.42,3.48c1.58,2.61,5.24,2.63,7.72,1.27a.19.19,0,0,1,.1,0,.17.17,0,0,1,.1,0,.16.16,0,0,1,.07.07.16.16,0,0,1,0,.09l0,.52a.19.19,0,0,0,.21.2l3.19,0c.11,0,.15,0,.12-.16a10.81,10.81,0,0,1-.38-2.82q-.06-3.33-.11-6.66c0-1.89-.32-3.33-1.87-4.28-2.39-1.46-5.65-1-8.23-.15a.36.36,0,0,0-.18.14.42.42,0,0,0-.08.21v2.81a.14.14,0,0,0,0,.06l0,.05.07,0Zm94.77,10,.19.6a.2.2,0,0,0,.21.15l3.34,0c.1,0,.13,0,.09-.13a8.91,8.91,0,0,1-.63-3.19c-.06-1.88-.11-3.67,0-5.62a10.64,10.64,0,0,0-.06-2.1c-.82-4.66-6.75-4.26-10.08-2.93a.13.13,0,0,0-.09.14v2.86c0,.12.05.16.16.12,1.67-.66,2.84-1.22,4.82-.82a2.06,2.06,0,0,1,1.87,2.05.5.5,0,0,1,0,.12.36.36,0,0,1-.07.1.3.3,0,0,1-.11.06h-.13c-1.92-.36-4.4-.54-6,.73-2.54,2-2.66,6.77.61,8.11a6.37,6.37,0,0,0,4.53.15c.37-.12.78-.4,1.19-.56A.17.17,0,0,1,376.69,500.48Zm-77.78-13,.1-.59c0-.14,0-.21-.17-.21h-3.65a.11.11,0,0,0-.08,0,.09.09,0,0,0,0,.08V501.1a.13.13,0,0,0,.14.14h3.53a.14.14,0,0,0,.16-.16c-.07-3.06,0-6.11,0-9.17.08-2.41,4.22-2.59,4.22.21q0,4.47,0,9a.13.13,0,0,0,.15.15H307s0,0,0,0l0,0a0,0,0,0,0,0,0c0-2.85,0-5.69,0-8.54,0-1.83.89-2.83,2.83-2.35,2.16.53,1.45,3.44,1.46,5,0,1.93,0,3.87.08,5.82a.12.12,0,0,0,.13.13l3.45.08c.09,0,.13,0,.13-.13q0-5.24-.07-10.4c-.1-4.89-5.68-5.19-8.6-2.69a.15.15,0,0,1-.21,0,5.74,5.74,0,0,0-7.22-.48H299s0,0-.05,0l0,0S298.9,487.53,298.91,487.51Zm23-.75a.17.17,0,0,0-.18-.18h-3.29a.17.17,0,0,0-.18.18v14.32a.19.19,0,0,0,.05.13.17.17,0,0,0,.13.05h3.29a.17.17,0,0,0,.13-.05.19.19,0,0,0,.05-.13Zm64.44,1.14v-1c0-.15-.07-.22-.21-.22l-3.31-.08a.2.2,0,0,0-.23.23l0,14.25a.21.21,0,0,0,.21.21h3.27c.12,0,.18-.06.18-.19l.07-9.07a.33.33,0,0,1,.09-.23,3.66,3.66,0,0,1,4.9-1c.13.06.19,0,.19-.12v-3.46a.33.33,0,0,0-.24-.33,4,4,0,0,0-4.72,1.14s0,0-.07,0a.12.12,0,0,1-.08,0,.15.15,0,0,1-.06,0A.11.11,0,0,1,386.33,487.9Z" transform="translate(-264.33 -364.77)"/><path class="cls-2" d="M401.55,366.18H266.66a.09.09,0,0,0-.09.09V410.8a.09.09,0,0,0,.09.09H401.55a.09.09,0,0,0,.09-.09V366.27A.09.09,0,0,0,401.55,366.18Z" transform="translate(-264.33 -364.77)"/><path class="cls-3" d="M401.56,421.21H266.64a.07.07,0,0,0-.07.07v44.5a.08.08,0,0,0,.07.08H401.56a.08.08,0,0,0,.07-.08v-44.5A.07.07,0,0,0,401.56,421.21Z" transform="translate(-264.33 -364.77)"/><path class="cls-3" d="M320.5,484.67a2.38,2.38,0,1,0-2.38-2.38A2.38,2.38,0,0,0,320.5,484.67Z" transform="translate(-264.33 -364.77)"/><path class="cls-3" d="M270.94,488h8.53a.1.1,0,0,1,0,0l0,0a.13.13,0,0,1,0,.06l0,3.89a.14.14,0,0,1-.05.1.12.12,0,0,1-.1.05l-8.45,0a.14.14,0,0,0-.11.05.14.14,0,0,0-.05.1v8.69a.14.14,0,0,1-.15.15h-3.91l-.05,0a.05.05,0,0,1-.05,0,.1.1,0,0,1,0-.05s0,0,0-.06v-21a.16.16,0,0,1,.05-.11.12.12,0,0,1,.1,0h12.76a.12.12,0,0,1,.1,0,.16.16,0,0,1,.05.11V484s0,0,0,.06l0,.05,0,0h-8.6a.18.18,0,0,0-.11,0,.16.16,0,0,0-.05.11v3.63a.16.16,0,0,0,.05.11A.18.18,0,0,0,270.94,488Z" transform="translate(-264.33 -364.77)"/><path class="cls-3" d="M328.82,480h-3.65a.08.08,0,0,0-.07.08v21.12a.08.08,0,0,0,.07.08h3.65a.08.08,0,0,0,.07-.08V480.05A.08.08,0,0,0,328.82,480Z" transform="translate(-264.33 -364.77)"/><path class="cls-3" d="M350.66,486.16l0,0h-.05l0,0,0,0V501.1a.13.13,0,0,1-.14.14H347a.14.14,0,0,1-.14-.14V480.18c0-.1.05-.15.14-.15l3.53-.08a.34.34,0,0,1,.27.12l5.43,6.34c.06.07.12.07.17,0l5.3-6.33A.3.3,0,0,1,362,480h3.63c.12,0,.18.06.18.17v21a.14.14,0,0,1-.16.15l-3.42,0c-.1,0-.14-.05-.14-.15q0-6.73,0-13.47a8.9,8.9,0,0,0-.09-1.26c0-.11-.07-.12-.14,0l-5.4,6.4c-.06.07-.11.07-.17,0Zm44.1,3.71h-1.91a.15.15,0,0,1-.16-.16v-3a.13.13,0,0,1,.15-.15h1.91a.13.13,0,0,0,.14-.14v-3.75a.37.37,0,0,1,.05-.18.35.35,0,0,1,.15-.12l3.21-1.26c.11,0,.17,0,.17.11v5.16a.16.16,0,0,0,.18.18h2.92c.11,0,.16.05.16.15l0,3a.12.12,0,0,1-.14.14h-2.88a.19.19,0,0,0-.13.05.2.2,0,0,0-.06.14c0,1.87,0,3.75,0,5.63s1.49,2.16,3,1.9q.18,0,.18.15v2.95a.23.23,0,0,1-.17.24c-3.31,1.18-6.6-.8-6.62-4.45,0-2.15,0-4.31,0-6.46C394.9,489.92,394.85,489.87,394.76,489.87Zm-106.67.34c-1.61-1.37-4.51-.65-6.17.26a.07.07,0,0,1-.06,0h-.06l-.05-.05a.13.13,0,0,1,0-.06v-2.81a.31.31,0,0,1,.07-.21.36.36,0,0,1,.18-.14c2.58-.82,5.84-1.31,8.23.15,1.55.95,1.83,2.39,1.87,4.28,0,2.22.07,4.44.11,6.66a10.81,10.81,0,0,0,.38,2.82c0,.11,0,.16-.12.16l-3.19,0a.19.19,0,0,1-.21-.2l0-.52a.36.36,0,0,0,0-.09.12.12,0,0,0-.07-.07.17.17,0,0,0-.1,0,.19.19,0,0,0-.1,0c-2.48,1.36-6.14,1.34-7.72-1.27a4.42,4.42,0,0,1-.42-3.49c1-3.95,4.26-4.34,7.8-3.66h.1l.09,0a.23.23,0,0,0,.07-.07.32.32,0,0,0,0-.09A1.6,1.6,0,0,0,288.09,490.21Zm-3.78,5.25c-1.4,3.11,4,4.05,4.21,1.29.05-.76.22-2.05-.68-2.39A2.73,2.73,0,0,0,284.31,495.46Zm92.15,4.9c-.42.16-.83.44-1.2.56a6.42,6.42,0,0,1-4.53-.15c-3.27-1.34-3.15-6.13-.61-8.11,1.63-1.27,4.11-1.09,6-.74h.13a.3.3,0,0,0,.11-.06.36.36,0,0,0,.07-.1.25.25,0,0,0,0-.12,2.06,2.06,0,0,0-1.87-2.05c-2-.4-3.15.16-4.82.82-.11,0-.16,0-.16-.12v-2.86a.13.13,0,0,1,.09-.14c3.33-1.33,9.26-1.73,10.08,2.93a10.64,10.64,0,0,1,.06,2.1c-.08,1.95,0,3.74,0,5.62a8.91,8.91,0,0,0,.63,3.19c0,.09,0,.13-.09.13l-3.34,0a.23.23,0,0,1-.21-.15l-.19-.61A.16.16,0,0,0,376.46,500.36Zm-4.24-3a2.52,2.52,0,0,0,4,.2.35.35,0,0,0,.12-.23,7.17,7.17,0,0,0-.07-2.53.3.3,0,0,0-.17-.22c-1.4-.66-3.29-.54-4,1A1.72,1.72,0,0,0,372.22,497.33Zm-73.31-9.82s0,0,0,.05l0,0,.05,0h.05a5.74,5.74,0,0,1,7.22.48.15.15,0,0,0,.21,0c2.92-2.5,8.51-2.2,8.6,2.69q.1,5.16.07,10.4c0,.09,0,.13-.13.12l-3.45-.07c-.09,0-.13-.05-.13-.13-.05-1.95-.07-3.89-.08-5.82,0-1.57.7-4.49-1.45-5-2-.48-2.85.52-2.84,2.35,0,2.85,0,5.69,0,8.54a.09.09,0,0,1,0,.06.07.07,0,0,1-.06,0H303.3a.13.13,0,0,1-.15-.15q0-4.5,0-9c0-2.8-4.14-2.62-4.22-.21-.08,3.06-.1,6.11,0,9.17a.14.14,0,0,1-.16.16h-3.53a.13.13,0,0,1-.14-.14V486.82a.12.12,0,0,1,0-.08.11.11,0,0,1,.08,0h3.65c.14,0,.2.07.17.2Z" transform="translate(-264.33 -364.77)"/><path class="cls-3" d="M321.71,486.58h-3.29a.18.18,0,0,0-.18.18v14.32a.18.18,0,0,0,.18.18h3.29a.18.18,0,0,0,.18-.18V486.76A.18.18,0,0,0,321.71,486.58Z" transform="translate(-264.33 -364.77)"/><path class="cls-3" d="M338.51,504.05h-3.72c-.15-.35,1.13-3.36,1.35-3.9a.55.55,0,0,0,0-.38l-5.33-13a.19.19,0,0,1,0-.08.11.11,0,0,1,0-.07.1.1,0,0,1,.06-.05l.07,0h3.56a.19.19,0,0,1,.12,0,.18.18,0,0,1,.08.09l3.25,8,0,0h.07s0,0,0,0l2.92-8a.2.2,0,0,1,.2-.14h3.43c.13,0,.17.06.13.18-.71,2-1.43,4.08-2.17,6.1C341.35,496.23,340,500.36,338.51,504.05Zm47.82-16.15a.11.11,0,0,0,0,.08s0,0,.06,0a.12.12,0,0,0,.08,0l.07,0a4,4,0,0,1,4.72-1.14.33.33,0,0,1,.24.33v3.46c0,.14-.07.18-.19.12a3.67,3.67,0,0,0-4.91,1,.38.38,0,0,0-.08.23l-.07,9.07c0,.13-.06.19-.18.19h-3.28a.2.2,0,0,1-.14-.06.2.2,0,0,1-.06-.15l0-14.25c0-.16.07-.23.23-.23l3.31.08c.14,0,.21.07.21.22Z" transform="translate(-264.33 -364.77)"/><path class="cls-1" d="M288.51,496.75c-.2,2.76-5.61,1.82-4.2-1.29a2.72,2.72,0,0,1,3.53-1.1C288.74,494.7,288.57,496,288.51,496.75Zm83.7.58a1.72,1.72,0,0,1-.15-1.77c.71-1.56,2.59-1.67,4-1a.29.29,0,0,1,.18.22,7.17,7.17,0,0,1,.06,2.53.38.38,0,0,1-.11.23A2.53,2.53,0,0,1,372.21,497.33Z" transform="translate(-264.33 -364.77)"/></svg>