<svg id="Layer_1" data-name="Layer 1" xmlns="http://www.w3.org/2000/svg" viewBox="0 0 326.03 325.92"><defs><style>.cls-1{fill:#060502;}.cls-2{fill:#fff;}.cls-3{fill:#232323;}.cls-4{fill:#dab325;}.cls-5{fill:#b69b33;}.cls-6{fill:#e4c75b;}.cls-7{fill:#525252;}.cls-8{fill:#d2b440;}.cls-9{fill:#857a4f;}.cls-10{fill:#d1b341;}.cls-11{fill:#d2b33d;}.cls-12{fill:#ceb03f;}.cls-13{fill:#d2b442;}.cls-14{fill:#d1b33e;}.cls-15{fill:#d5b641;}.cls-16{fill:#dcbd47;}.cls-17{fill:#d9ba45;}.cls-18{fill:#d3b540;}.cls-19{fill:#e1c047;}.cls-20{fill:#d6b743;}.cls-21{fill:#f1c41d;}.cls-22{fill:#d4b646;}.cls-23{fill:#e6c448;}.cls-24{fill:#c4aa47;}.cls-25{fill:#d9b326;}.cls-26{fill:#d0b345;}</style></defs><title>gear</title><path class="cls-1" d="M151.89,325.34c-5.18.1-10.36.36-15.54.23-2.86-.08-4.83-1.88-5.71-4.66-1.68-5.35-3.43-10.68-4.92-16.09-.62-2.24-1.88-3.24-4-4.09-10.5-4.31-20.91-8.86-31.4-13.2a4.32,4.32,0,0,0-3.15.4c-4.57,2.39-9.08,4.89-13.56,7.45a5.74,5.74,0,0,1-7-.66c-6.16-5.69-12-11.76-18-17.57-4.93-4.72-10.1-9.19-15-13.91-6.78-6.48-10.19-7.93-2.41-19.09,1.7-2.44,2.81-5.32,4.63-7.65,1.56-2,1.12-3.53.3-5.6C32.22,221,28.56,211,24.63,201.14a5.43,5.43,0,0,0-3.08-2.87c-5.37-1.63-10.8-3-16.27-4.3-3.74-.86-5.14-3.3-5.15-6.75,0-17.18-.08-34.36,0-51.54,0-3.32,1.94-5.6,5.22-6.47,5.76-1.52,11.57-2.86,17.29-4.53a4.79,4.79,0,0,0,2.77-2.77,147.75,147.75,0,0,1,12.7-29.67,4.34,4.34,0,0,0,.06-3.61c-2.2-4.12-4.86-8-7-12.13a13.78,13.78,0,0,1-1.84-6.75c.09-1.56,1.91-3.14,3.18-4.5Q49.51,47,66.67,28.91c4.06-4.27,6.09-4.4,10.91-1.17,4.47,3,8.86,6.13,13.42,9a4.58,4.58,0,0,0,3.84.3,151.69,151.69,0,0,1,30-11.79c1-.27,1.93-1.76,2.22-2.86,1.37-5.06,2.49-10.2,3.7-15.3,1.35-5.67,3.14-7.08,9-7.08H188c4.79,0,6.76,1.32,8.1,6,1.56,5.38,3,10.81,4.21,16.28a5,5,0,0,0,3.52,4c9.61,4,19.1,8.25,28.71,12.22a6.54,6.54,0,0,0,4.69,0c4.25-1.94,8.35-4.22,12.45-6.48,4.77-2.63,8.31-2.16,12.17,1.55q16.35,15.72,32.78,31.34a15.34,15.34,0,0,0,1.72,1.28c4.64,3.29,5.64,7.45,2.44,12.09A153.32,153.32,0,0,1,289,91.1a3.56,3.56,0,0,0-.62,4.44c3.89,9,8.05,17.91,11.21,27.16,1.23,3.61,3,4.64,6.14,5.16,3.87.64,7.72,1.54,11.61,2.06,7.29,1,8.36,5.68,8.62,11.59.28,6.38.16,12.78,0,19.17-.09,4.69-.55,9.36-.67,14s-.15,9.28,0,13.92c.13,3.68-1.6,6.18-4.81,7.24a115.68,115.68,0,0,1-14.53,3.77,8,8,0,0,0-6.85,5.72c-3.33,8.81-7,17.49-10.88,26.09-1.39,3.1-2,5.7.17,8.68,1.83,2.5,3.17,5.36,4.86,8,3.86,6,3.7,8.2-1.22,13.5-.65.71-1.37,1.37-2,2.06l-26,26.74q-3.86,4-7.82,7.82c-3,2.9-5.68,3.24-9,.87q-6.13-4.39-12-9.12a3.78,3.78,0,0,0-4.47-.56c-10,4.12-20,8-30,12.06a5.06,5.06,0,0,0-2.46,3.05c-1.4,5.17-2.38,10.46-3.79,15.64-.78,2.87-2.25,5.41-6.57,5.16-10.29,0-20-.07-29.7-.38-7-.65-13.83-1-20.7-1.4l-.05,1c2,0,4.05-.11,6.07,0,2.79.18,5.57.54,8.35.82M68.15,286.93s-.1,0,0,.4a2.35,2.35,0,0,0,.67.34s-.07.05.13.48c1.11.21,2.47,1,3.28.55,2.88-1.38,5.57-3.16,8.83-4.87a23.15,23.15,0,0,0,4.11-2.26c2.92-2.48,5.33-1.38,8.42,0,10.52,4.75,21.21,9.11,31.93,13.4,2.58,1,4.39,2.39,5.15,5,.5,1.73.88,3.51,1.48,5.21,1.62,4.6,3.33,9.18,5.51,14.1,16,0,32,.09,48,0,.84,0,1.67-1,2.63-1.79a3,3,0,0,1,.36-.51c.14-.64.29-1.29.58-2.25a2.27,2.27,0,0,1,.27-.71c.12-.66.24-1.32.54-2.61,1-4.65,2-9.33,3.11-13.95a3.36,3.36,0,0,1,2.06-1.93c3.59-1,7.43-1.39,10.86-2.79,8.35-3.39,16.5-7.26,24.77-10.84,1.09-.48,2.8-1,3.55-.54,4.28,2.84,8.36,6,12.63,9.48l4.24,3.21c1.37-1.62,2.51-3,3.57-4.33,0,0,0,.09.38,0a2,2,0,0,0,.32-.69s0,.1.41,0a2,2,0,0,0,.32-.69s0,.09.4-.05a2.34,2.34,0,0,0,.3-.71s0,.08.39-.05a2.1,2.1,0,0,0,.33-.67s0,.08.4,0a4.12,4.12,0,0,0,.34-.66s0,.06.37-.05a6.28,6.28,0,0,0,.83-.8l29.82-31.14c-2.79-4.74-5.19-9.36-8.1-13.63-2.3-3.35-3-6.25-.2-9.6,1-1.15,1.36-2.77,2.37-4.46a6.66,6.66,0,0,0,.38-1.3s0,.09.41-.23c.44-1.07.87-2.13,1.3-3.26l.34-.26c.78-1.88,1.57-3.76,2.28-5.69,0,0,0,.08.39-.2.09-.53.2-1,.34-1.57,0,0,0-.27.39-.57a12.21,12.21,0,0,0,.4-2s0,.11.43-.14a10.48,10.48,0,0,0,.18-1.37s0,.07.44-.22a12.92,12.92,0,0,0,.34-1.94s0,.1.44-.19a12.34,12.34,0,0,0,.28-2s0,.1.46-.19a13.54,13.54,0,0,0,.27-2s0,.1.45-.2c.49-1.63,1-3.27,1.64-5.44.35-.73.54-2,1.07-2.13,3.71-1.15,7.5-2.09,11.26-3.09s7.26-2,11.49-3.17c.09-17,.2-34,.21-51.07,0-.6-1-1.19-2.08-1.88-6.19-1.37-12.4-2.66-18.56-4.16a4.61,4.61,0,0,1-3-2.12c-1.38-3.59-2.37-7.32-3.53-11.53-1.49-3.52-3-7.05-4.49-10.65a2.84,2.84,0,0,0-.1-.57c-1-1.93-2.06-3.87-3.11-5.73,0,0,.08,0,0-.53-.9-1.82-1.8-3.63-2.78-5.51,0,0,.09,0,0-.48-1.78-2.11-.38-3.89.54-5.74,0,0,0,.06.42-.18a21.74,21.74,0,0,1,2.24-2.81c3.42-4.4,6.83-8.79,10.38-13.34-4-3.59-7.4-6.71-11.05-10.27-2.07-1.85-4.14-3.7-6.25-5.49,0,0,.08,0-.06-.38a2,2,0,0,0-.7-.31s.1,0-.05-.39a2,2,0,0,0-.69-.32s.1,0-.05-.39a2.58,2.58,0,0,0-.7-.31s.08,0-.05-.39a2.85,2.85,0,0,0-.68-.33s.08,0-.05-.4a4.17,4.17,0,0,0-.67-.33s.06,0-.15-.43a17.62,17.62,0,0,1-2.28-2.12c-4.26-4-8.69-7.88-12.71-12.13-2.5-2.65-4.52-3.09-7.62-1A120.37,120.37,0,0,1,239,44.65a36.84,36.84,0,0,1-4.23,2.08,1.45,1.45,0,0,1-.7-.21c-.25-.1-.5-.21-.82-.31,0,0-.06,0-.37-.38-3.12-1.47-6.23-2.94-9.34-4.35,0,0,0,0-.08-.39a7.27,7.27,0,0,1-1.27-.86,2.77,2.77,0,0,1-1.16-.55c-1.08-.41-2.15-.83-3.28-1.17,0,0,.09,0-.19-.4-.59-.21-1.17-.42-1.79-.6l-.39-.34c-6.46-2.24-12.93-4.48-19.52-7a3.27,3.27,0,0,1-.54-.92c-1-3.56-1.94-7.12-2.91-11.22-.95-3.74-1.9-7.47-3.14-11.66-3.37-.1-6.74-.27-10.1-.28H137.09c-.73,3.68-1.42,7.21-2.22,11.34a61.54,61.54,0,0,1-1.59,8.18,7.32,7.32,0,0,1-5.34,5.26c-8.73,2.67-17.16,6.28-26.17,9.67-1.62.79-3.2,1.69-4.88,2.35-1.93.75-3.94,1.28-6,2a1.26,1.26,0,0,0-.22-.45,2.23,2.23,0,0,0-.71-.17s.07,0-.13-.41a3.82,3.82,0,0,0-1.27-.47s.14-.15-.15-.5L84,40l-.26-.33a17.58,17.58,0,0,0-1.62-.82s0,.1-.23-.23a1.34,1.34,0,0,1-.79-.5c-.06-.21-.2-.34-.66-.73-.26-.06-.52-.13-1.06-.29a.57.57,0,0,1-.44-.41,2.85,2.85,0,0,0-.6-.43s.07,0-.18-.44a15.53,15.53,0,0,0-2-1s.12,0-.11-.43a16,16,0,0,0-2.09-1s.15,0-.1-.43c-1.21-1.11-2.25-1.24-2.89.55,0,0,0-.07-.38,0a2.25,2.25,0,0,0-.33.68s0-.08-.4,0a3.6,3.6,0,0,0-.32.69s0-.06-.37.08a2,2,0,0,1-.74.75,4.26,4.26,0,0,0-.72.75c-.23.36-.45.72-.6,1a1.74,1.74,0,0,0-.48.22c-.67.77-1.34,1.53-2.43,2.59a20.79,20.79,0,0,1-1.65,2.29C55,50.46,47.34,58.2,39.86,66.09c-5.84,6.16-5,5.11-.59,12.15.61.86,1.22,1.73,1.87,2.48,0,0-.08.09,0,.57,1.18,1.79,2.36,3.57,3.58,5.25,0,0-.08.07,0,.58,1.3,1.56,1.85,3.2.68,5.12,0,0,0-.08-.41.21-.68,1.3-1.36,2.6-2,3.93l-.39.34c-1.17,2.39-2.35,4.77-3.71,7.4a1.08,1.08,0,0,1-.41.65c-2.56,6.71-5.31,13.36-7.61,20.16-1,3.06-2.14,5.47-6.22,6-5.65,1.47-11.3,2.93-17.56,4.22a20,20,0,0,0-.88,4.19c0,16,.1,32,.43,48.53C11.36,189,16,190,21.16,191.45c2.52.65,5,1.3,7.61,1.86,0,0-.1,0,0,.58,1.91,6.07,3.74,12.17,5.77,18.2.71,2.1,1.94,4,2.91,6.56,1.85,4,3.47,8.15,5.63,12,1.32,2.35,1.16,4-.25,6.16-3.52,5.42-6.77,11-10.5,17.14a34.05,34.05,0,0,1,3,2.21c7.1,6.6,14.17,13.24,21.27,20.28a13.59,13.59,0,0,0,1.33,1l.1.41a5.72,5.72,0,0,0,1.3.67s-.26,0-.13.32a1,1,0,0,0,.62.41,1.94,1.94,0,0,0,.22.44c2.39,2.21,4.78,4.43,7.21,6.57,0,0-.08,0,.07.38A2,2,0,0,0,68,287M1.3,168.9v-34H.77v52.64H1.3V168.79M160.54.79H137.33v.46h28V.79Z" transform="translate(-0.08 -0.01)"/><path class="cls-2" d="M158.28,325.14c9.67,0,19.33.07,29.33.13a2.45,2.45,0,0,1-1.49.66c-11.08,0-22.17,0-33.08-.36A34,34,0,0,1,158.28,325.14Z" transform="translate(-0.08 -0.01)"/><path class="cls-3" d="M158.22,324.87a32.6,32.6,0,0,1-5.31.43h-.84c-3-.26-5.74-.62-8.53-.8-2-.13-4,0-6.07,0l.05-1C144.39,323.84,151.28,324.22,158.22,324.87Z" transform="translate(-0.08 -0.01)"/><path class="cls-4" d="M56.75,275.89,35.5,256a34.05,34.05,0,0,0-3-2.21c3.73-6.13,7-11.72,10.5-17.14,1.41-2.17,1.57-3.81.25-6.16A101.71,101.71,0,0,1,37.69,218c-2.45-8.3-4.92-16-7.47-23.75-.14-.45-.89-.7-1.35-1,0,0,.1,0,.08-.24-2.69-.81-5.37-1.38-8-1.94C16.28,190,11.6,188.93,7,187.38c.16-1.78.31-3.1.31-4.41V139.51A30,30,0,0,1,8,135.29c5.65-1.46,11.3-2.92,17.39-4.27,3.55.42,5.47-.42,6.16-4s2.39-7,3.59-10.53c1.37-4,2.69-8,4-12.07a.56.56,0,0,1,.37-.45c1.48-2.62,2.61-5.09,3.74-7.56h.27a32.32,32.32,0,0,0,2.15-4.23s0,.08.26,0c2-2.39,2-4.35-1-5.6a.47.47,0,0,0,.1-.3c-1.23-2-2.48-3.74-3.73-5.5a.51.51,0,0,0,.1-.29,28.09,28.09,0,0,0-2-2.73c-4.26-6.59-5.15-5.54.69-11.7,7.48-7.89,15.12-15.63,22.67-23.46a27.48,27.48,0,0,1,2.13-2.45,16.26,16.26,0,0,0,2.33-2.64,1.61,1.61,0,0,1,.31,0,3.78,3.78,0,0,0,.78-1.23c0-.25.12-.44.67-.69a2.36,2.36,0,0,0,.77-.77s0,.06.15,0a4.07,4.07,0,0,0,.56-.75s0,.08.16,0a4,4,0,0,0,.57-.73s0,.07.28.08c1.14,0,2-.1,2.85-.15,0,0-.15,0-.11.27a11.5,11.5,0,0,0,2.28,1.19s-.12,0-.09.28a11.38,11.38,0,0,0,2.27,1.18s-.07,0,0,.21a3.18,3.18,0,0,0,.71.66,1.14,1.14,0,0,1,.56.22,4.5,4.5,0,0,0,1,.45c.22,0,.36.16.54.71a1.47,1.47,0,0,0,.87.49v.16a6.16,6.16,0,0,0,1.85.92l0,.24a48.15,48.15,0,0,0,4.63,3,.34.34,0,0,0-.06.35,6.3,6.3,0,0,0,1.39.65s-.07,0,0,.19a2.22,2.22,0,0,0,.85.33,1.82,1.82,0,0,1,0,.33c.28.53.77,1.21.86,1.16,3.5-1.93,7-3.92,10.44-5.9,8.55-3.24,17-6.85,25.71-9.52a7.32,7.32,0,0,0,5.34-5.26c.87-2.61,1.08-5.45,1.87-8.62a53.71,53.71,0,0,0,1.92-6.21c.49-2.22,1.24-3.56,4-3.49,16,.38,31.95.58,47.92.78.19,0,.38-.8.56-1.23,1,3.73,1.9,7.46,2.82,11.81,1,4.15,2,7.67,3,11.2.21,0,.37.15.64.72a127.71,127.71,0,0,0,12.33,5c2.4.83,4.92,1.3,7.39,1.93l.08.26a7.15,7.15,0,0,0,2,.72s-.09,0,0,.27a21.38,21.38,0,0,0,3.57,1.28,1.22,1.22,0,0,1,.8.46,4.07,4.07,0,0,0,1.43,1s0,0,.07.2c3.26,1.63,6.39,3.08,9.53,4.53,0,0,.06,0,0,.22a2.57,2.57,0,0,0,1.17.35,1.67,1.67,0,0,1,.73.14,26.25,26.25,0,0,0,4.34-2.33c3.82-2.13,7.8-4,11.42-6.45,3.1-2.09,5.12-1.65,7.62,1,4,4.25,8.45,8.11,12.82,12.63a10.37,10.37,0,0,0,2.38,2s-.06,0,0,.19a3.35,3.35,0,0,0,.74.56s-.08,0,0,.16a3.35,3.35,0,0,0,.74.56s-.08,0,0,.17A3.12,3.12,0,0,0,276,56s-.1,0,0,.18a3.11,3.11,0,0,0,.77.53s-.1,0,0,.18a3.4,3.4,0,0,0,.77.53s-.08,0-.09.23c2.15,2,4.31,3.88,6.47,5.7L294.76,73c-3.55,4.55-7,8.94-10.73,13.29a16,16,0,0,0-2.27,3.1s0-.06-.27,0c-3.26,2.5-3.24,4.32-.19,6.24,0,0-.09,0-.14.27.92,2.12,1.9,3.92,2.88,5.73,0,0-.08,0-.1.25,1.07,2.16,2.15,4.07,3.24,6a3,3,0,0,1-.13.39c1.47,3.83,3.05,7.34,4.63,10.85,1.14,3.69,2.13,7.42,3.51,11a4.61,4.61,0,0,0,3,2.12c6.16,1.5,12.37,2.79,19,4.49a13.74,13.74,0,0,1,.86,4.25v48.62l-10.89,2.92c-3.76,1-7.55,1.94-11.26,3.09-.53.16-.72,1.4-1.41,2.45a48.79,48.79,0,0,0-1.73,5.42s0-.1-.21,0a11.32,11.32,0,0,0-.51,2.16s0-.1-.21,0a10.7,10.7,0,0,0-.52,2.15s0-.1-.21,0a11,11,0,0,0-.57,2.11s0-.07-.2,0a5.94,5.94,0,0,0-.4,1.5s0-.11-.23,0a10.27,10.27,0,0,0-.63,2.18.69.69,0,0,1-.2.53,5.2,5.2,0,0,0-.47,1.59s0-.08-.25-.06a56,56,0,0,0-2.44,6h-.24a18.08,18.08,0,0,0-1.4,3.55s0-.09-.21,0a6.57,6.57,0,0,0-.54,1.48,20.32,20.32,0,0,1-2,4.17c-2.78,3.35-2.1,6.25.2,9.6,2.91,4.27,5.31,8.89,8.1,13.63-9.93,10.37-19.88,20.76-30.15,31.11a2,2,0,0,0-.84.94s0-.06-.18,0a3.16,3.16,0,0,0-.58.73s0-.08-.16,0a3.63,3.63,0,0,0-.56.73s0-.08-.16,0a3.4,3.4,0,0,0-.53.77s0-.09-.17,0a3.25,3.25,0,0,0-.56.76s0-.1-.17,0a3.53,3.53,0,0,0-.56.77s0-.09-.23-.09a6.19,6.19,0,0,1-7.69.67c-4.15-3-8.23-6.19-12.51-9-.75-.5-2.46.06-3.55.54-8.27,3.58-16.42,7.45-24.77,10.84-3.43,1.4-7.27,1.77-10.86,2.79a3.36,3.36,0,0,0-2.06,1.93c-1.16,4.62-2.1,9.3-3.44,14.25a8.62,8.62,0,0,0-.42,2.67.62.62,0,0,1-.37.46,8.2,8.2,0,0,0-.53,2.45.45.45,0,0,1-.3.24c-.4.12-.59.19-1.12.32-15.55.07-30.76.07-46,.13a18.09,18.09,0,0,0-3.87.64,1.5,1.5,0,0,0,0,.3c-1.68-4.58-3.39-9.16-5-13.76-.6-1.7-1-3.48-1.48-5.21-.76-2.66-2.57-4-5.15-5.05-10.72-4.29-21.41-8.65-31.93-13.4-3.09-1.4-5.5-2.5-8.42,0a14.12,14.12,0,0,1-4.52,2.14,27,27,0,0,0-4.31,1.29l-7.59,2.72s.07-.05,0-.21a2.77,2.77,0,0,0-.76-.56s.1,0,0-.18a3.15,3.15,0,0,0-.77-.54s.08,0,.09-.24c-2.48-2.39-5-4.56-7.46-6.73a1.5,1.5,0,0,0,0-.3,1.33,1.33,0,0,0-.76-.49s.26,0,.14-.23a5.36,5.36,0,0,0-1.33-.82v-.23a8.16,8.16,0,0,0-1.33-1.23m164.81-40.25a8.6,8.6,0,0,1,.58-1.18h.48c.4-.81.79-1.62,1.27-2.47,0,0,0-.09.54,0,.21-.61.43-1.22.7-2.23.08-.1.17-.21.62-.1.33-.88.67-1.75,1-2.73,0,0,0-.09.56,0,1.42-3.76,2.83-7.53,4.65-11.64.83-4.46,1.66-8.93,2.46-14,.51-3,1.06-6,1.53-9.07,1.4-8.91,3.1-17.8,4-26.77.77-7.37.55-14.83-3.36-22.13a44.59,44.59,0,0,1-3.76-3.77s-.08.19-.1-.36a6.26,6.26,0,0,1-2-1s-.21.19-.22-.35c-6.81-4.72-19.87-4.29-27.74,1a6.5,6.5,0,0,1-.65,1.07s-.07,0-.59-.26a8.9,8.9,0,0,1-.69-2.68c.19-3.07.56-6.14.87-9.78A42.53,42.53,0,0,1,203.8,120c1.49-5.11,3-10.22,4.48-15.33.85-2.92,1.65-5.85,2.53-8.81,0,0,0-.06.51,0a37.81,37.81,0,0,1,2-3.45h.4A18.73,18.73,0,0,1,216.84,91a4.13,4.13,0,0,1,1.93.39c4.12,1.79,4.77,3.51,3.87,8.67-.61,3.5-.83,7.06-1.24,10.54,0,0,.07,0-.38.31-.16,2.31-.32,4.62-.4,7.35a4.69,4.69,0,0,0,.45,1.37c8.66.11,17.33.23,26,.29.35,0,.71-.53,1.14-1.16a2,2,0,0,1,.76-.35,7.52,7.52,0,0,0,.86-1.48c2.53-8.43,2.4-17.11,1.81-25.72-.18-2.55-2.15-5-3.61-7.85-2.28-4.06-5.79-6.67-10.07-9-.44-.38-.82-1-1.33-1.1-8.67-2.38-17.48-2.41-26.32-1.38-1.44.17-2.78,1.13-4.16,1.68h-.46c-.44.32-.88.64-1.73,1.31A71.36,71.36,0,0,0,197.28,78c-9.32,5.82-14.7,14.73-19.47,24.58a16.83,16.83,0,0,0-1.88,3.3c-2,6.53-4.15,13-5.77,19.66-1.35,5.54-2.06,11.24-3.06,17.46-2.17,9.24-4.46,18.46-6.5,27.73-2.52,11.44-4.86,22.92-7.21,34.39-1.67,8.11-2.7,16.51-.5,24.41,2.48,8.88,7.75,16.33,17.21,20.23.91.51,1.8,1.4,2.74,1.46,6.65.49,13.31,1.14,19.95,1,2.56,0,5.08-1.92,8-3.19a9.93,9.93,0,0,1,1.54-.07c4.91-1.2,9.63-2.72,12.54-7.29h.43a9.73,9.73,0,0,1,.7-1.1s.06-.08.55.21A27,27,0,0,1,220,237.3s-.25-.16.31,0a4.6,4.6,0,0,1,.84-1.37s0-.25.46-.21M99.33,196.32c-.64,2.14-1.27,4.28-2,7a24.51,24.51,0,0,0-1.42,2.8c-3.33,9.36-6.68,18.71-9.9,28.1-1.91,5.53-3.6,11.13-5.1,17.25.1.07.2.2.3.2q15.74.15,31.46.23c.08,0,.15-.59.54-1.33,2.53-7.32,5.05-14.64,8.11-22.08a13.42,13.42,0,0,0,1.28-2.12c2.49-6.91,5-13.82,7.35-20.78a85.62,85.62,0,0,0,2.09-8.82,61.57,61.57,0,0,1,3.53-8.08c2.51-6.5,5.06-13,7.48-19.52a21.2,21.2,0,0,0,.6-4.35c1.5-4.1,3-8.21,5-12.42a42,42,0,0,0,2.5-5.46c1.49-4.92,2.77-9.9,4.13-15.4,1.33-4.13,2.77-8.23,3.95-12.39,4.26-14.93,8.44-29.88,12.38-45.35a11.4,11.4,0,0,0-2.08-.4H97.35a5.91,5.91,0,0,0-2.87,1.2,1.62,1.62,0,0,1-.73.33c-1.48,6.29-3,12.58-4.45,19.18a1.33,1.33,0,0,1-.46.66c-.36,1.26-.77,2.51-1.08,3.79-1.11,4.55-1.1,4.56,3.67,4.56h40.69v5c-7.81,21.35-15.63,42.69-23.92,64.14a34.36,34.36,0,0,0-2.51,5c-1.16,3.64-2,7.38-3,11.1,0,0,0,.08-.53.1-.81,2.62-1.63,5.24-2.37,7.89C99.87,196.22,99.88,196.29,99.33,196.32Z" transform="translate(-0.08 -0.01)"/><path class="cls-5" d="M189.53,6.48c0,.66-.23,1.46-.42,1.46-16-.2-32-.4-47.92-.78-2.75-.07-3.5,1.27-4,3.49a42.24,42.24,0,0,1-1.87,5.91c.47-3.39,1.16-6.92,1.89-10.6h42.06C182.64,6,186,6.15,189.53,6.48Z" transform="translate(-0.08 -0.01)"/><path class="cls-6" d="M318.28,189.41c-.3-16.08-.29-32.29-.31-48.49a29.63,29.63,0,0,0-.56-4.2c.42.31,1.38.9,1.38,1.5C318.79,155.24,318.68,172.26,318.28,189.41Z" transform="translate(-0.08 -0.01)"/><path class="cls-7" d="M1.47,169.15v18.41H.94V134.91h.53Z" transform="translate(-0.08 -0.01)"/><path class="cls-6" d="M7.64,135.13c.09,1.49-.31,2.9-.32,4.3v43.46a23.2,23.2,0,0,1-.43,4.16c-.29-15.79-.38-31.81-.39-47.82A10,10,0,0,1,7.64,135.13Z" transform="translate(-0.08 -0.01)"/><path class="cls-8" d="M38.92,104.5c-1.14,3.85-2.46,7.89-3.83,11.9-1.2,3.52-2.88,6.92-3.59,10.53s-2.61,4.43-5.89,3.93c3.37-.56,4.48-3,5.51-6C33.42,118,36.17,111.38,38.92,104.5Z" transform="translate(-0.08 -0.01)"/><path class="cls-9" d="M187.41,317.81a2.54,2.54,0,0,1,.71-.17c-.69.62-1.52,1.66-2.36,1.66-16,.07-32,0-48.29-.19-.25-.17-.26-.37.11-.42,15.77-.05,31.18,0,46.59-.07A12.94,12.94,0,0,0,187.41,317.81Z" transform="translate(-0.08 -0.01)"/><path class="cls-10" d="M28.92,193.49c.41,0,1.16.3,1.3.75,2.55,7.71,5,15.45,7.48,23.48a31,31,0,0,1-3-5.74C32.71,206,30.88,199.85,28.92,193.49Z" transform="translate(-0.08 -0.01)"/><path class="cls-8" d="M215.67,37.22a54.28,54.28,0,0,1-7.22-1.76c-4.11-1.42-8.13-3.07-12.28-4.88C202.56,32.57,209,34.81,215.67,37.22Z" transform="translate(-0.08 -0.01)"/><path class="cls-3" d="M161.05.74h4.28V1.2h-28V.74Z" transform="translate(-0.08 -0.01)"/><path class="cls-10" d="M68.91,287.86c2.43-1.12,5-2,7.49-2.93a28.85,28.85,0,0,1,4.06-1.25,61,61,0,0,1-8.17,5C71.48,289,70.12,288.29,68.91,287.86Z" transform="translate(-0.08 -0.01)"/><path class="cls-11" d="M102.13,40.34c-3.24,1.9-6.71,3.89-10.21,5.82-.09.05-.58-.63-.85-1.22,2-.9,4-1.43,6-2.18C98.7,42.1,100.28,41.2,102.13,40.34Z" transform="translate(-0.08 -0.01)"/><path class="cls-12" d="M291.67,118.79c-1.57-3.25-3.15-6.76-4.61-10.56C288.68,111.48,290.17,115,291.67,118.79Z" transform="translate(-0.08 -0.01)"/><path class="cls-10" d="M60.09,279.38c2.37,2,4.86,4.15,7.32,6.58C65,284,62.6,281.79,60.09,279.38Z" transform="translate(-0.08 -0.01)"/><path class="cls-13" d="M247.06,290.63a6.54,6.54,0,0,0,7.67-.87,41.26,41.26,0,0,1-3.37,4.31C249.87,292.94,248.5,291.9,247.06,290.63Z" transform="translate(-0.08 -0.01)"/><path class="cls-14" d="M233.14,45.89c-3-1.27-6.11-2.72-9.37-4.38C226.76,42.77,229.87,44.24,233.14,45.89Z" transform="translate(-0.08 -0.01)"/><path class="cls-11" d="M283.81,62.94a77.22,77.22,0,0,1-6.34-5.51A75.59,75.59,0,0,1,283.81,62.94Z" transform="translate(-0.08 -0.01)"/><path class="cls-8" d="M195.46,29.42c-1-3.23-2-6.75-3-10.62C193.49,22,194.46,25.57,195.46,29.42Z" transform="translate(-0.08 -0.01)"/><path class="cls-15" d="M43,96.47a65.63,65.63,0,0,1-3.46,7.29A67.46,67.46,0,0,1,43,96.47Z" transform="translate(-0.08 -0.01)"/><path class="cls-12" d="M281.28,95.32c-3-1.66-3-3.48.28-6C280.8,91.17,279.4,93,281.28,95.32Z" transform="translate(-0.08 -0.01)"/><path class="cls-14" d="M41.28,81a51.93,51.93,0,0,1,3.64,5.31A48,48,0,0,1,41.28,81Z" transform="translate(-0.08 -0.01)"/><path class="cls-12" d="M287.13,107.56a57.78,57.78,0,0,1-3.18-5.77A63.43,63.43,0,0,1,287.13,107.56Z" transform="translate(-0.08 -0.01)"/><path class="cls-10" d="M21.13,191.18a54.86,54.86,0,0,1,7.8,1.83A57.74,57.74,0,0,1,21.13,191.18Z" transform="translate(-0.08 -0.01)"/><path class="cls-16" d="M285.84,221.51a34.41,34.41,0,0,1,2.28-5.8A33.59,33.59,0,0,1,285.84,221.51Z" transform="translate(-0.08 -0.01)"/><path class="cls-14" d="M44.93,86.76c3,1,3,3,1,5.32C46.83,90.22,46.28,88.58,44.93,86.76Z" transform="translate(-0.08 -0.01)"/><path class="cls-12" d="M284,101.31a39.41,39.41,0,0,1-2.83-5.43A40,40,0,0,1,284,101.31Z" transform="translate(-0.08 -0.01)"/><path class="cls-11" d="M88.73,43a32.56,32.56,0,0,1-4.47-2.76A32.56,32.56,0,0,1,88.73,43Z" transform="translate(-0.08 -0.01)"/><path class="cls-16" d="M292.92,203.27a23,23,0,0,1,1.42-5A23,23,0,0,1,292.92,203.27Z" transform="translate(-0.08 -0.01)"/><path class="cls-15" d="M45.45,92.21a18.69,18.69,0,0,1-2,4.06A17.62,17.62,0,0,1,45.45,92.21Z" transform="translate(-0.08 -0.01)"/><path class="cls-14" d="M239.34,44.49a21.91,21.91,0,0,1-3.91,2.3A24,24,0,0,1,239.34,44.49Z" transform="translate(-0.08 -0.01)"/><path class="cls-8" d="M221.28,39.74a10.83,10.83,0,0,1-3.37-1.14A11.19,11.19,0,0,1,221.28,39.74Z" transform="translate(-0.08 -0.01)"/><path class="cls-12" d="M282,89.26a13.51,13.51,0,0,1,1.86-2.86A13.51,13.51,0,0,1,282,89.26Z" transform="translate(-0.08 -0.01)"/><path class="cls-14" d="M39.4,77.91a12.39,12.39,0,0,1,1.92,2.57A12,12,0,0,1,39.4,77.91Z" transform="translate(-0.08 -0.01)"/><path class="cls-17" d="M67,37.55a11.37,11.37,0,0,1-1.93,2.39A11.12,11.12,0,0,1,67,37.55Z" transform="translate(-0.08 -0.01)"/><path class="cls-16" d="M284.21,225a10.11,10.11,0,0,1,1.21-3.36A10.57,10.57,0,0,1,284.21,225Z" transform="translate(-0.08 -0.01)"/><path class="cls-17" d="M74.14,33a8.81,8.81,0,0,1-2.75.35C71.77,31.57,72.81,31.7,74.14,33Z" transform="translate(-0.08 -0.01)"/><path class="cls-11" d="M273.71,53.45a7.58,7.58,0,0,1-2.17-1.6A7.58,7.58,0,0,1,273.71,53.45Z" transform="translate(-0.08 -0.01)"/><path class="cls-17" d="M76.33,34.49a4.87,4.87,0,0,1-2.1-1A4.71,4.71,0,0,1,76.33,34.49Z" transform="translate(-0.08 -0.01)"/><path class="cls-17" d="M78.49,36a5,5,0,0,1-2.09-1A4.67,4.67,0,0,1,78.49,36Z" transform="translate(-0.08 -0.01)"/><path class="cls-9" d="M189.5,314.22a4.89,4.89,0,0,1,.22-2.18A5,5,0,0,1,189.5,314.22Z" transform="translate(-0.08 -0.01)"/><path class="cls-9" d="M188.62,317.15A4.8,4.8,0,0,1,189,315,4.53,4.53,0,0,1,188.62,317.15Z" transform="translate(-0.08 -0.01)"/><path class="cls-10" d="M56.76,276.1a2.89,2.89,0,0,1,1.31,1A2.71,2.71,0,0,1,56.76,276.1Z" transform="translate(-0.08 -0.01)"/><path class="cls-14" d="M223.63,41.15a2,2,0,0,1-1.21-.61A2,2,0,0,1,223.63,41.15Z" transform="translate(-0.08 -0.01)"/><path class="cls-16" d="M289.28,213.48a3.67,3.67,0,0,1,.46-2A3.67,3.67,0,0,1,289.28,213.48Z" transform="translate(-0.08 -0.01)"/><path class="cls-17" d="M84.08,39.78A3,3,0,0,1,82.4,39,3,3,0,0,1,84.08,39.78Z" transform="translate(-0.08 -0.01)"/><path class="cls-8" d="M217.81,38.18a3.34,3.34,0,0,1-1.87-.54A3.19,3.19,0,0,1,217.81,38.18Z" transform="translate(-0.08 -0.01)"/><path class="cls-16" d="M292.2,205.46a3.45,3.45,0,0,1,.34-2A3.54,3.54,0,0,1,292.2,205.46Z" transform="translate(-0.08 -0.01)"/><path class="cls-16" d="M291.46,207.63a3.55,3.55,0,0,1,.36-2A3.55,3.55,0,0,1,291.46,207.63Z" transform="translate(-0.08 -0.01)"/><path class="cls-16" d="M290.68,209.76a3.57,3.57,0,0,1,.42-2A3.57,3.57,0,0,1,290.68,209.76Z" transform="translate(-0.08 -0.01)"/><path class="cls-16" d="M283.44,226.55a2,2,0,0,1,.41-1.33A2,2,0,0,1,283.44,226.55Z" transform="translate(-0.08 -0.01)"/><path class="cls-11" d="M90.11,44a1.66,1.66,0,0,1-1.21-.52A1.59,1.59,0,0,1,90.11,44Z" transform="translate(-0.08 -0.01)"/><path class="cls-16" d="M288.53,215.61a1.82,1.82,0,0,1,.22-1.33A1.92,1.92,0,0,1,288.53,215.61Z" transform="translate(-0.08 -0.01)"/><path class="cls-16" d="M290.07,211.32a1.82,1.82,0,0,1,.24-1.38A1.82,1.82,0,0,1,290.07,211.32Z" transform="translate(-0.08 -0.01)"/><path class="cls-13" d="M258.72,286.09a1,1,0,0,1,.45-.77C259.28,285.71,259.11,285.9,258.72,286.09Z" transform="translate(-0.08 -0.01)"/><path class="cls-14" d="M234.34,46.52a1.16,1.16,0,0,1-1-.23A1.23,1.23,0,0,1,234.34,46.52Z" transform="translate(-0.08 -0.01)"/><path class="cls-10" d="M58.13,277.54a1.57,1.57,0,0,1,1.12.63C58.89,278.19,58.55,278,58.13,277.54Z" transform="translate(-0.08 -0.01)"/><path class="cls-17" d="M68.06,36.32a1.68,1.68,0,0,1-.62,1.17A1.68,1.68,0,0,1,68.06,36.32Z" transform="translate(-0.08 -0.01)"/><path class="cls-13" d="M257.28,287.54c0-.16.08-.38.41-.67C257.73,287,257.59,287.25,257.28,287.54Z" transform="translate(-0.08 -0.01)"/><path class="cls-11" d="M275.22,54.93c-.16.06-.38-.08-.66-.41C274.71,54.47,274.94,54.61,275.22,54.93Z" transform="translate(-0.08 -0.01)"/><path class="cls-11" d="M276,55.62c-.16.07-.39,0-.69-.37C275.45,55.18,275.68,55.31,276,55.62Z" transform="translate(-0.08 -0.01)"/><path class="cls-11" d="M276.73,56.33c-.17.07-.4-.06-.7-.39C276.2,55.87,276.43,56,276.73,56.33Z" transform="translate(-0.08 -0.01)"/><path class="cls-11" d="M277.47,57c-.17.06-.4-.06-.7-.39C276.94,56.58,277.17,56.71,277.47,57Z" transform="translate(-0.08 -0.01)"/><path class="cls-11" d="M91,44.51c-.15.11-.41.05-.74-.21C90.38,44.18,90.62,44.27,91,44.51Z" transform="translate(-0.08 -0.01)"/><path class="cls-17" d="M82.2,38.72c-.15.1-.41.05-.75-.19C81.61,38.41,81.85,38.48,82.2,38.72Z" transform="translate(-0.08 -0.01)"/><path class="cls-17" d="M70.22,34.08c0,.15-.08.38-.4.67C69.77,34.6,69.89,34.37,70.22,34.08Z" transform="translate(-0.08 -0.01)"/><path class="cls-13" d="M255.12,289.76c-.06-.17.07-.4.41-.69C255.59,289.24,255.45,289.47,255.12,289.76Z" transform="translate(-0.08 -0.01)"/><path class="cls-13" d="M255.84,289c-.06-.16.08-.4.42-.69C256.28,288.52,256.18,288.74,255.84,289Z" transform="translate(-0.08 -0.01)"/><path class="cls-13" d="M256.57,288.3c-.07-.16.06-.4.38-.7C257,287.76,256.89,288,256.57,288.3Z" transform="translate(-0.08 -0.01)"/><path class="cls-17" d="M79.22,36.81c-.14,0-.37-.13-.63-.5C78.74,36.27,79,36.45,79.22,36.81Z" transform="translate(-0.08 -0.01)"/><path class="cls-10" d="M68.14,287c.17-.06.4.07.69.41C68.65,287.54,68.43,287.4,68.14,287Z" transform="translate(-0.08 -0.01)"/><path class="cls-13" d="M258,286.81c-.05-.15.09-.38.42-.67C258.45,286.3,258.28,286.53,258,286.81Z" transform="translate(-0.08 -0.01)"/><path class="cls-10" d="M67.42,286.35c.16-.06.4.07.68.4C67.93,286.82,67.71,286.67,67.42,286.35Z" transform="translate(-0.08 -0.01)"/><path class="cls-17" d="M69.52,34.84c0,.15-.1.36-.42.65C69.06,35.35,69.19,35.13,69.52,34.84Z" transform="translate(-0.08 -0.01)"/><path class="cls-17" d="M70.94,33.35c.06.16-.09.38-.42.67C70.47,33.86,70.61,33.64,70.94,33.35Z" transform="translate(-0.08 -0.01)"/><path class="cls-11" d="M274.5,54.21a.92.92,0,0,1-.67-.41C274,53.75,274.21,53.88,274.5,54.21Z" transform="translate(-0.08 -0.01)"/><path class="cls-10" d="M59.28,278.56c.19-.08.45,0,.68.31C59.7,279,59.51,278.94,59.28,278.56Z" transform="translate(-0.08 -0.01)"/><path class="cls-17" d="M80.77,37.5c-.13.1-.39,0-.77-.22C80.13,37.19,80.39,37.26,80.77,37.5Z" transform="translate(-0.08 -0.01)"/><path class="cls-6" d="M171.79,74c-25.44.26-51,.27-76.9.26a5.94,5.94,0,0,1,2.51-.91q36.09-.07,72.18,0A4.93,4.93,0,0,1,171.79,74Z" transform="translate(-0.08 -0.01)"/><path class="cls-18" d="M178,102.54c-3.36,13.12-7,26.28-10.81,39.65.82-5.42,1.53-11.12,2.88-16.66,1.62-6.63,3.75-13.13,5.77-19.66A10.5,10.5,0,0,1,178,102.54Z" transform="translate(-0.08 -0.01)"/><path class="cls-19" d="M89.09,94.56c-.08,2.28-.36,4.73-.68,7.5h45.8c-.65,2-1.17,3.5-1.86,5.24a26.92,26.92,0,0,1-.18-4.21H91.48c-4.77,0-4.78,0-3.67-4.56A30.6,30.6,0,0,1,89.09,94.56Z" transform="translate(-0.08 -0.01)"/><path class="cls-20" d="M248.78,118.24c1.7-8.62,3-17.36,1.73-26.25-.39-2.69-1.35-5.29-2.08-8.2,1.12,2.22,3.09,4.64,3.27,7.19.59,8.61.72,17.29-1.81,25.72A4,4,0,0,1,248.78,118.24Z" transform="translate(-0.08 -0.01)"/><path class="cls-20" d="M121.11,228.49c3.33-10.25,6.94-20.56,10.74-31.06a58,58,0,0,1-1.85,8.11c-2.34,7-4.86,13.87-7.35,20.78A7,7,0,0,1,121.11,228.49Z" transform="translate(-0.08 -0.01)"/><path class="cls-17" d="M170,249.51a47,47,0,0,0,30.09-.2c-2.27,1-4.79,2.88-7.35,2.92-6.64.12-13.3-.53-20-1C171.85,251.15,171,250.26,170,249.51Z" transform="translate(-0.08 -0.01)"/><path class="cls-21" d="M187.07,317.87a9.69,9.69,0,0,1-2.9.75c-15.41.05-30.82,0-46.56,0a14.33,14.33,0,0,1,3.5-.59C156.28,317.94,171.52,317.94,187.07,317.87Z" transform="translate(-0.08 -0.01)"/><path class="cls-17" d="M238.06,74.39a65.55,65.55,0,0,0-31.55-1,11.46,11.46,0,0,1,3.86-1.72c8.84-1,17.65-1,26.32,1.38C237.2,73.18,237.58,73.76,238.06,74.39Z" transform="translate(-0.08 -0.01)"/><path class="cls-15" d="M230.58,138c-8.67-3.19-17.3-3.47-26.36.63h-.94C210.7,133.49,223.76,133,230.58,138Z" transform="translate(-0.08 -0.01)"/><path class="cls-13" d="M203.65,119.73c2.12-7.91,4.49-15.87,7-24-.65,2.77-1.45,5.7-2.3,8.62C206.91,109.45,205.4,114.56,203.65,119.73Z" transform="translate(-0.08 -0.01)"/><path class="cls-10" d="M135.37,188.68c2.46-7.64,5.18-15.33,8.08-23.2a10,10,0,0,1-.35,3.64C140.68,175.65,138.13,182.14,135.37,188.68Z" transform="translate(-0.08 -0.01)"/><path class="cls-20" d="M219.28,90.31c4.07,1.36,5.27,3,4.74,7.11-.55,4.26-1.32,8.48-2.24,12.87a81.55,81.55,0,0,1,1-10.46c.9-5.16.25-6.88-3.9-8.91A4.93,4.93,0,0,1,219.28,90.31Z" transform="translate(-0.08 -0.01)"/><path class="cls-22" d="M148.45,152.4c2-6.62,4.27-13.29,6.71-20.17-1.19,4.76-2.47,9.74-4,14.66A25.64,25.64,0,0,1,148.45,152.4Z" transform="translate(-0.08 -0.01)"/><path class="cls-23" d="M80.81,251.15c10.41-.3,21-.32,31.83-.27a1.16,1.16,0,0,1,.08,1q-15.73-.06-31.46-.23C81.16,251.62,81.06,251.49,80.81,251.15Z" transform="translate(-0.08 -0.01)"/><path class="cls-10" d="M94.06,74.84C92.83,81,91.34,87.28,89.61,93.65,90.84,87.48,92.28,81.19,94.06,74.84Z" transform="translate(-0.08 -0.01)"/><path class="cls-24" d="M201.85,139.71a19.58,19.58,0,0,1-3.52,2.61c1.11-5.12,2.1-9.67,3.26-14.44-.13,2.85-.5,5.92-.69,9A6.35,6.35,0,0,0,201.85,139.71Z" transform="translate(-0.08 -0.01)"/><path class="cls-18" d="M108.49,172.12c-1.65,5.21-3.54,10.48-5.61,15.92.82-3.53,1.7-7.27,2.86-10.91A22.2,22.2,0,0,1,108.49,172.12Z" transform="translate(-0.08 -0.01)"/><path class="cls-6" d="M221,119.14c8.75-.25,17.65-.25,26.88-.25,0,.27-.39.8-.74.8C238.47,119.63,229.8,119.51,221,119.14Z" transform="translate(-0.08 -0.01)"/><path class="cls-18" d="M202,248.94c3.91-2.42,8.11-4.81,12.55-7.27C211.94,246.25,207.22,247.77,202,248.94Z" transform="translate(-0.08 -0.01)"/><path class="cls-12" d="M231,215.62c1.06-4.44,2.12-8.89,3.35-13.54-.67,4.25-1.5,8.72-2.68,13.36A2,2,0,0,1,231,215.62Z" transform="translate(-0.08 -0.01)"/><path class="cls-20" d="M230.86,215.86c.12-.24.43-.25.58-.25a116,116,0,0,1-4.36,11.24C228.12,223.24,229.44,219.67,230.86,215.86Z" transform="translate(-0.08 -0.01)"/><path class="cls-18" d="M102.51,188.32A59.81,59.81,0,0,1,100,196,59.81,59.81,0,0,1,102.51,188.32Z" transform="translate(-0.08 -0.01)"/><path class="cls-20" d="M221.28,110.52a57.8,57.8,0,0,1-.62,6.82A60,60,0,0,1,221.28,110.52Z" transform="translate(-0.08 -0.01)"/><path class="cls-15" d="M236.66,143.57a33.5,33.5,0,0,1-3.75-3.69A36.29,36.29,0,0,1,236.66,143.57Z" transform="translate(-0.08 -0.01)"/><path class="cls-18" d="M99.61,196.3a38.87,38.87,0,0,1-2,6.25A38.87,38.87,0,0,1,99.61,196.3Z" transform="translate(-0.08 -0.01)"/><path class="cls-18" d="M216.28,240.62a18.7,18.7,0,0,1,3.2-3.45A18.7,18.7,0,0,1,216.28,240.62Z" transform="translate(-0.08 -0.01)"/><path class="cls-13" d="M211.16,95.51a12.63,12.63,0,0,1,1.94-3.38A12.91,12.91,0,0,1,211.16,95.51Z" transform="translate(-0.08 -0.01)"/><path class="cls-20" d="M213.54,92.09a7.87,7.87,0,0,1,2.59-1.7.59.59,0,0,1,.26.39A27.16,27.16,0,0,1,213.54,92.09Z" transform="translate(-0.08 -0.01)"/><path class="cls-20" d="M225.56,229.53a8.18,8.18,0,0,1,1.06-2.4A8.18,8.18,0,0,1,225.56,229.53Z" transform="translate(-0.08 -0.01)"/><path class="cls-18" d="M222.35,234.42a7.28,7.28,0,0,1,1.3-2.3A7.28,7.28,0,0,1,222.35,234.42Z" transform="translate(-0.08 -0.01)"/><path class="cls-15" d="M232.82,139.44a5.11,5.11,0,0,1-2.07-.93A5.11,5.11,0,0,1,232.82,139.44Z" transform="translate(-0.08 -0.01)"/><path class="cls-18" d="M220,237.16a2.57,2.57,0,0,1,.88-1.44A2.68,2.68,0,0,1,220,237.16Z" transform="translate(-0.08 -0.01)"/><path class="cls-13" d="M216.65,90.77c-.26,0-.29-.25-.29-.38a9.38,9.38,0,0,1,2.59-.18c.17.27,0,.4-.31.52C218,90.78,217.44,90.77,216.65,90.77Z" transform="translate(-0.08 -0.01)"/><path class="cls-17" d="M206,73.34a3.56,3.56,0,0,1-1.36.93A3.56,3.56,0,0,1,206,73.34Z" transform="translate(-0.08 -0.01)"/><path class="cls-18" d="M224.17,231.91a3.08,3.08,0,0,1,.74-1.65A3.19,3.19,0,0,1,224.17,231.91Z" transform="translate(-0.08 -0.01)"/><path class="cls-24" d="M203.07,138.7a3.32,3.32,0,0,1,.89,0,5.15,5.15,0,0,1-1.48,1A1.43,1.43,0,0,1,203.07,138.7Z" transform="translate(-0.08 -0.01)"/><path class="cls-18" d="M215,241.65c0-.3.25-.59.67-1A1.49,1.49,0,0,1,215,241.65Z" transform="translate(-0.08 -0.01)"/><path class="cls-18" d="M221.28,235.62a1.64,1.64,0,0,1,.61-1.14A1.64,1.64,0,0,1,221.28,235.62Z" transform="translate(-0.08 -0.01)"/><path class="cls-25" d="M202.59,203.92c-1.45,6.17-3,12.31-4.32,18.5s-5.33,9.48-11,10.93c-2.63.67-7.7-1.83-7.17-5.45.94-6.47,2-12.92,3.08-19.37a47.79,47.79,0,0,1,1.42-5.9c2-8.38,3.79-16.3,5.54-24.22a4.64,4.64,0,0,1,.44-1.83,22.36,22.36,0,0,0,1.81-4.21c1.49-5.13,1.81-10.71,6-14.77.37-.36.36-1.1.53-1.66a9,9,0,0,1,9.66-.45c1.65.86,2,4.28,2.55,7a44.13,44.13,0,0,0-1.69,6.18c-1.12,6.2-2.15,12.41-3.4,18.76a14.14,14.14,0,0,0,0,2.76c0,.14,0,.28-.34.68C204.39,195.38,203.49,199.65,202.59,203.92Z" transform="translate(-0.08 -0.01)"/><path class="cls-10" d="M206.19,187.26c1.07-6.2,2.1-12.41,3.22-18.61a38.88,38.88,0,0,1,1.61-5.89c-1.24,7.93-2.71,16-4.43,24.29C206.34,187.29,206.19,187.26,206.19,187.26Z" transform="translate(-0.08 -0.01)"/><path class="cls-26" d="M198.65,156a2,2,0,0,1-.29,1.59c-4.16,4.06-4.48,9.64-6,14.77a18.65,18.65,0,0,1-1.72,4,74.84,74.84,0,0,1,2.89-12.46C194.6,161,196.75,158.66,198.65,156Z" transform="translate(-0.08 -0.01)"/><path class="cls-26" d="M190,178.64c-1.59,7.69-3.34,15.61-5.29,23.69C186.28,194.62,188,186.74,190,178.64Z" transform="translate(-0.08 -0.01)"/><path class="cls-18" d="M202.76,203.72c.73-4.07,1.63-8.34,2.75-12.7C204.8,195.14,203.86,199.33,202.76,203.72Z" transform="translate(-0.08 -0.01)"/><path class="cls-18" d="M206,187.41a.49.49,0,0,1,.4-.12,19.59,19.59,0,0,1-.34,2.65A7.67,7.67,0,0,1,206,187.41Z" transform="translate(-0.08 -0.01)"/><rect class="cls-4" x="72.68" y="62.93" width="184.72" height="193.25"/></svg>