<svg id="圖層_1" data-name="圖層 1" xmlns="http://www.w3.org/2000/svg" xmlns:xlink="http://www.w3.org/1999/xlink" viewBox="0 0 527.55 527.55"><defs><style>.cls-1,.cls-4{fill:none;}.cls-2{fill:#f5a916;}.cls-3{clip-path:url(#clip-path);}.cls-4{stroke:#fff;stroke-linecap:round;stroke-linejoin:round;stroke-width:24.54px;}</style><clipPath id="clip-path" transform="translate(-15.05 -167.52)"><rect class="cls-1" x="157.37" y="298.54" width="263.04" height="238.01"/></clipPath></defs><title>thumbsup</title><path class="cls-2" d="M542.6,431.29c0,145.68-118.1,263.77-263.78,263.77S15.05,577,15.05,431.29s118.1-263.77,263.77-263.77S542.6,285.61,542.6,431.29Z" transform="translate(-15.05 -167.52)"/><g class="cls-3"><path class="cls-4" d="M228,412l49.08-92.38a40.75,40.75,0,0,1,26,9c6.9,5.78,10.78,13.61,10.78,21.78v41.05h69.44a28.77,28.77,0,0,1,10.33,1.8,25,25,0,0,1,8.47,5.26,19.83,19.83,0,0,1,5,7.75,17.25,17.25,0,0,1,.7,8.8L391,507.48a20,20,0,0,1-8.37,12.57,27.53,27.53,0,0,1-16.17,4.88H228M228,412V524.93M228,412h-36.8a27.16,27.16,0,0,0-17.35,6,19,19,0,0,0-7.19,14.51v71.86a19,19,0,0,0,7.19,14.51,27.15,27.15,0,0,0,17.35,6H228" transform="translate(-15.05 -167.52)"/></g></svg>